<?xml version="1.0" encoding="UTF-8"?>
<svg id="Layer_2" xmlns="http://www.w3.org/2000/svg" xmlns:xlink="http://www.w3.org/1999/xlink" viewBox="0 0 526.57 600">
  <defs>
    <style>
      .cls-1 {
        fill: #d2d4dd;
      }

      .cls-1, .cls-2, .cls-3, .cls-4 {
        fill-rule: evenodd;
      }

      .cls-2 {
        fill: #e8e8eb;
      }

      .cls-3 {
        fill: #6c7481;
      }

      .cls-4 {
        fill: #1f2938;
      }
    </style>
    <symbol id="Cube" viewBox="0 0 585.25 666.86">
      <g>
        <path id="BG" class="cls-4" d="M0,486.7V178.47c0-9.03,4.83-17.36,12.66-21.85L280.1,3.34c7.76-4.45,17.29-4.45,25.05,0l267.44,153.29c7.83,4.49,12.66,12.83,12.66,21.85v308.22c0,8.98-4.79,17.29-12.56,21.79l-267.44,154.97c-7.81,4.53-17.45,4.53-25.26,0L12.56,508.49c-7.77-4.5-12.56-12.81-12.56-21.79Z"/>
        <path id="Left" class="cls-3" d="M25,479.6V189.92l251.39,145.67c3.86,2.24,6.24,6.36,6.24,10.82v289.68L31.24,490.42c-3.86-2.24-6.24-6.36-6.24-10.82Z"/>
        <path id="Right" class="cls-2" d="M308.86,335.59l251.39-145.67v289.68c0,4.46-2.38,8.59-6.24,10.82l-251.39,145.67v-289.68c0-4.46,2.38-8.59,6.24-10.82Z"/>
        <path id="Top" class="cls-1" d="M35.03,172.62L286.41,28.54c3.85-2.21,8.59-2.21,12.44,0l251.38,144.08-251.33,145.64c-3.88,2.25-8.66,2.25-12.54,0L35.03,172.62Z"/>
      </g>
    </symbol>
  </defs>
  <g id="Cube-2" data-name="Cube">
    <use width="585.25" height="666.86" transform="scale(.9)" xlink:href="#Cube"/>
  </g>
</svg>