<svg xmlns="http://www.w3.org/2000/svg" viewBox="0 0 526.57 600">
  <g transform="scale(0.9)">
    <path fill="#1f2937" fill-rule="evenodd" d="M0 486.7V178.47c0-9.03 4.83-17.36 12.66-21.85L280.1 3.34c7.76-4.45 17.29-4.45 25.05 0l267.44 153.29c7.83 4.49 12.66 12.83 12.66 21.85v308.22c0 8.98-4.79 17.29-12.56 21.79l-267.44 154.97c-7.81 4.53-17.45 4.53-25.26 0L12.56 508.49C4.79 504 0 495.69 0 486.7Z"/>
    <path fill="#6b7280" fill-rule="evenodd" d="M25 479.6V189.92l251.39 145.67a12.5 12.5 0 0 1 6.24 10.82v289.68L31.24 490.42A12.5 12.5 0 0 1 25 479.6Z"/>
    <path fill="#e5e7eb" fill-rule="evenodd" d="M308.86 335.59 560.25 189.92v289.68a12.5 12.5 0 0 1-6.24 10.82L302.62 636.09V346.41a12.5 12.5 0 0 1 6.24-10.82Z"/>
    <path fill="#d1d5db" fill-rule="evenodd" d="M35.03 172.62 286.41 28.54a12.5 12.5 0 0 1 12.44 0l251.38 144.08-251.33 145.64a12.5 12.5 0 0 1-12.54 0L35.03 172.62Z"/>
  </g>
</svg>
