<svg xmlns="http://www.w3.org/2000/svg" viewBox="0 0 600 600">
  <defs>
    <style>
      .gray-200 { fill: #e5e7eb; } /* #e8e8eb; */
      .gray-300 { fill: #d1d5db; } /* #d2d4dd; */
      .gray-500 { fill: #6b7280; } /* #6c7481; */
      .gray-800 { fill: #1f2937; } /* #1f2938; */
      .evenodd { fill-rule: evenodd; }
    </style>

    <symbol id="cube-base" viewBox="0 0 585.25 666.86">
      <path class="gray-800 evenodd" d="M0 486.7V178.47c0-9.03 4.83-17.36 12.66-21.85L280.1 3.34c7.76-4.45 17.29-4.45 25.05 0l267.44 153.29c7.83 4.49 12.66 12.83 12.66 21.85v308.22c0 8.98-4.79 17.29-12.56 21.79l-267.44 154.97c-7.81 4.53-17.45 4.53-25.26 0L12.56 508.49C4.79 504 0 495.69 0 486.7Z" />

      <path class="gray-500 evenodd" d="M25 479.6V189.92l251.39 145.67a12.5 12.5 0 0 1 6.24 10.82v289.68L31.24 490.42A12.5 12.5 0 0 1 25 479.6Z" />

      <path class="gray-200 evenodd" d="M308.86 335.59 560.25 189.92v289.68a12.5 12.5 0 0 1-6.24 10.82L302.62 636.09V346.41a12.5 12.5 0 0 1 6.24-10.82Z" />

      <path class="gray-300 evenodd" d="M35.03 172.62 286.41 28.54a12.5 12.5 0 0 1 12.44 0l251.38 144.08-251.33 145.64a12.5 12.5 0 0 1-12.54 0L35.03 172.62Z" />
    </symbol>
  </defs>

  <g>
    <use href="#cube-base" width="585.25" height="666.86" transform="translate(39.44 272.74) scale(.49)" />
    <use href="#cube-base" width="585.25" height="666.86" transform="translate(39.44) scale(.49)" />

    <g>
      <path class="gray-800 evenodd" d="M554.34 212.85 423.1 137.63a12.37 12.37 0 0 0-12.29 0L279.57 212.85a12.3 12.3 0 0 0-6.21 10.72v100.29l46.55 26.68a12.3 12.3 0 0 1 5.67 9.78v51.89l85.19 49.37a12.3 12.3 0 0 0 12.4 0l131.24-76.05a12.3 12.3 0 0 0 6.16-10.7V223.57a12.3 12.3 0 0 0-6.21-10.72Z" />
      <path class="gray-200 evenodd" d="M424.92 300.68 548.29 229.19v142.16a6.2 6.2 0 0 1-3.06 5.31l-123.37 71.49V305.99a6.2 6.2 0 0 1 3.06-5.31Z" />
      <path class="gray-500 evenodd" d="M408.98 300.68 285.61 229.19v100.45l34.83 19.96a12.3 12.3 0 0 1 6.21 10.72v38.34l85.39 49.48V305.98a6.2 6.2 0 0 0-3.06-5.31Z" />
      <path class="gray-300 evenodd" d="M290.54 220.7 413.9 150a6.15 6.15 0 0 1 6.1 0l123.36 70.71-123.34 71.47a6.15 6.15 0 0 1-6.15 0L290.54 220.7Z" />
    </g>
  </g>
</svg>
